<svg width="26" height="16" viewBox="0 0 26 16" fill="none" xmlns="http://www.w3.org/2000/svg">
    <path
        d="M7.33338 5.80602C7.33338 6.14047 7.35938 6.40803 7.42439 6.63545C7.4894 6.79599 7.58042 7.01003 7.69743 7.25084C7.74944 7.30435 7.76244 7.38461 7.76244 7.4515C7.76244 7.54515 7.71044 7.62542 7.59342 7.71906L7.04733 8.09365C6.96932 8.14716 6.89131 8.17391 6.8263 8.17391C6.73528 8.17391 6.65727 8.1204 6.56626 8.04013C6.44924 7.90635 6.34522 7.77257 6.25421 7.62542C6.1762 7.47826 6.08518 7.30435 5.99417 7.10368C5.31806 7.91973 4.47293 8.33445 3.44577 8.33445C2.71766 8.33445 2.14557 8.1204 1.7165 7.69231C1.30044 7.26421 1.0794 6.68896 1.0794 5.96656C1.0794 5.23077 1.33944 4.62876 1.85952 4.14716C2.39261 3.69231 3.09472 3.4515 3.97885 3.4515C4.2779 3.4515 4.55094 3.47826 4.902 3.53177C5.20105 3.57191 5.5521 3.6388 5.89015 3.71906V3.07692C5.89015 2.39465 5.76013 1.95318 5.48709 1.64548C5.20105 1.36455 4.74597 1.24415 4.08287 1.24415C3.77082 1.24415 3.45877 1.28428 3.14673 1.35117C2.82167 1.43144 2.50963 1.52508 2.21058 1.65886C2.06756 1.71237 1.95054 1.75251 1.91153 1.76589C1.84652 1.79264 1.80752 1.79264 1.76851 1.79264C1.65149 1.79264 1.58648 1.71237 1.58648 1.52508V1.08361C1.58648 0.949833 1.59948 0.842809 1.65149 0.77592C1.6905 0.70903 1.76851 0.655518 1.88553 0.615385C2.19758 0.428094 2.54863 0.294314 2.9777 0.187291C3.40677 0.0668894 3.84883 0.0133782 4.32991 0.0133782C5.35707 0.0133782 6.11119 0.254181 6.59226 0.735786C7.07334 1.21739 7.30737 1.95318 7.30737 2.92977V5.80602H7.33338ZM3.82283 7.17057C4.10888 7.17057 4.39492 7.11706 4.70697 7.01003C5.01902 6.90301 5.29206 6.70234 5.5261 6.43478C5.66912 6.26087 5.77313 6.07358 5.85115 5.85953C5.85115 5.64548 5.91616 5.3913 5.91616 5.08361V4.72241C5.65612 4.62876 5.39608 4.62876 5.11003 4.56187C4.83699 4.53512 4.55094 4.50836 4.30391 4.50836C3.71881 4.50836 3.30275 4.62876 3.01671 4.86957C2.73066 5.11037 2.60064 5.44482 2.60064 5.88629C2.60064 6.31438 2.69165 6.63545 2.91269 6.83612C3.12072 7.06354 3.41977 7.17057 3.82283 7.17057ZM10.7659 8.1204C10.6099 8.1204 10.5059 8.09365 10.4019 8.04013C10.3628 7.97324 10.2978 7.85284 10.2458 7.69231L8.21751 0.816054C8.16551 0.615385 8.1395 0.521739 8.1395 0.45485C8.1395 0.307692 8.20451 0.227425 8.34754 0.227425H9.19267C9.36169 0.227425 9.47871 0.254181 9.53072 0.321071C9.60873 0.374582 9.66074 0.494983 9.71275 0.668896L11.156 6.55518L12.5082 0.668896C12.5472 0.494983 12.5992 0.374582 12.6772 0.321071C12.7422 0.267559 12.8592 0.227425 13.0023 0.227425H13.7174C13.8734 0.227425 13.9904 0.254181 14.0554 0.321071C14.1204 0.374582 14.1854 0.494983 14.2245 0.668896L15.6027 6.63545L17.0849 0.668896C17.1369 0.494983 17.2019 0.374582 17.2539 0.321071C17.3319 0.267559 17.436 0.227425 17.592 0.227425H18.3981C18.5411 0.227425 18.6191 0.307692 18.6191 0.45485C18.6191 0.494983 18.6061 0.548495 18.5931 0.615385C18.5931 0.615385 18.5671 0.722408 18.5411 0.816054L16.4478 7.69231C16.3958 7.8796 16.3438 7.97324 16.2528 8.04013C16.2008 8.09365 16.0837 8.13378 15.9407 8.13378H15.1996C15.0306 8.13378 14.9526 8.10702 14.8485 8.04013C14.7835 7.97324 14.7185 7.86622 14.6925 7.69231L13.3533 1.95318L12.0141 7.67893C11.9751 7.85284 11.9231 7.97324 11.8581 8.04013C11.7801 8.09365 11.6631 8.1204 11.507 8.1204H10.7659ZM21.8826 8.3612C21.4536 8.3612 20.9725 8.30769 20.5434 8.20067C20.1144 8.09365 19.7763 7.97324 19.5553 7.85284C19.4123 7.77257 19.3212 7.67893 19.2822 7.59866C19.2432 7.51839 19.2302 7.43813 19.2302 7.35786V6.90301C19.2302 6.71572 19.2952 6.63545 19.4253 6.63545C19.5033 6.63545 19.5033 6.63545 19.5813 6.63545C19.6333 6.63545 19.7113 6.70234 19.8023 6.74248C20.0884 6.87625 20.4134 6.98328 20.7515 7.05017C21.1025 7.11706 21.4536 7.15719 21.7786 7.15719C22.3247 7.15719 22.7538 7.06355 23.0398 6.86288C23.3389 6.63545 23.4949 6.38127 23.4949 6.02007C23.4949 5.76589 23.4039 5.56522 23.2609 5.3913C23.1048 5.23077 22.8058 5.07023 22.3897 4.93645L21.1285 4.53512C20.5044 4.32107 20.0364 4.02676 19.7503 3.62542C19.4643 3.23746 19.3212 2.79599 19.3212 2.32776C19.3212 1.95318 19.3993 1.63211 19.5553 1.35117C19.7113 1.05686 19.9193 0.816054 20.1534 0.615385C20.4394 0.414716 20.7255 0.267558 21.0765 0.160535C21.4146 0.0535116 21.7786 0 22.1687 0C22.3507 0 22.5457 0.0133782 22.7538 0.0401341C22.9358 0.0668899 23.1178 0.107023 23.2999 0.133779C23.4819 0.187291 23.6379 0.227425 23.7939 0.280937C23.95 0.334448 24.054 0.38796 24.158 0.441471C24.275 0.508361 24.366 0.575251 24.418 0.655519C24.47 0.735786 24.496 0.829431 24.496 0.949833V1.37793C24.496 1.56522 24.431 1.65886 24.301 1.65886C24.236 1.65886 24.119 1.61873 23.963 1.55184C23.4819 1.32441 22.9228 1.20401 22.3117 1.20401C21.8176 1.20401 21.4536 1.28428 21.1545 1.45819C20.8945 1.61873 20.7515 1.88629 20.7515 2.24749C20.7515 2.50167 20.8425 2.71572 21.0115 2.87625C21.1805 3.05017 21.5056 3.2107 21.9607 3.37124L23.1958 3.77257C23.8199 3.95987 24.262 4.25418 24.5351 4.62876C24.7951 4.98997 24.9251 5.40468 24.9251 5.87291C24.9251 6.24749 24.8471 6.59532 24.7041 6.90301C24.5481 7.19732 24.34 7.46488 24.054 7.67893C23.8069 7.90635 23.4819 8.06689 23.1178 8.18729C22.7538 8.30769 22.3117 8.3612 21.8826 8.3612ZM23.5079 12.6957C20.6605 14.8495 16.5258 16 13.0023 16C7.99648 16 3.51078 14.1003 0.117253 10.9565C-0.155789 10.7023 0.0912494 10.3679 0.4163 10.5686C4.08287 12.7492 8.59457 14.0736 13.2753 14.0736C16.4348 14.0736 19.9063 13.4047 23.0918 11.9866C23.5729 11.786 23.976 12.3344 23.5079 12.6957ZM24.7041 11.3177C24.327 10.8227 22.2857 11.0769 21.3626 11.1839C21.0895 11.2241 21.0505 10.9699 21.2976 10.7826C22.9228 9.61873 25.6012 9.97993 25.9003 10.3411C26.2123 10.7425 25.8223 13.4983 24.301 14.8094C24.054 15.01 23.8329 14.903 23.937 14.6622C24.288 13.7525 25.0551 11.7726 24.7041 11.3177Z"
        fill="white" />
</svg>