<svg width="41" height="56" viewBox="0 0 41 56" fill="none" xmlns="http://www.w3.org/2000/svg">
    <path
        d="M33.0212 11.4283C33.0212 11.4283 13.9919 16.2181 23.117 26.778C25.8156 29.8872 22.4215 32.6882 22.4215 32.6882C22.4215 32.6882 29.2376 29.1869 26.066 24.7052C23.117 20.5877 20.8914 18.5429 33.0212 11.4283ZM20.5853 14.7895C31.8527 5.82618 26.066 0 26.066 0C28.4029 9.24345 17.8311 12.0445 14.0197 17.8147C11.4045 21.7361 15.2994 25.9657 20.5019 30.8115C18.5266 26.0497 11.5436 21.9602 20.5853 14.7895ZM13.1851 43.3322C4.6163 45.7411 18.4153 50.6989 29.2932 46.0212C28.236 45.601 27.2067 45.0969 26.2329 44.5086C22.4493 45.377 18.5544 45.545 14.7152 45.0128C11.0707 44.5647 13.1851 43.3322 13.1851 43.3322ZM27.9856 38.6264C23.117 39.6908 18.0815 39.9429 13.1294 39.3547C9.48491 38.9906 11.8775 37.1979 11.8775 37.1979C2.41847 40.3631 17.1078 43.9204 30.2391 40.055C29.4323 39.7469 28.6533 39.2147 27.9856 38.6264ZM37.5003 47.8699C37.5003 47.8699 39.0861 49.1864 35.8032 50.1948C29.4601 52.0995 9.56837 52.6877 4.05989 50.2788C2.08462 49.4105 5.81258 48.206 6.98105 47.9539C7.62093 47.7859 8.2608 47.7298 8.90068 47.7298C6.70285 46.2173 -5.37131 50.811 2.80796 52.0995C24.981 55.7408 43.2592 50.4188 37.5003 47.8699ZM29.8774 34.2568C30.6842 33.7246 31.5467 33.2764 32.4369 32.8843C32.4369 32.8843 28.236 33.6126 24.0351 34.0047C19.5838 34.4529 15.1047 34.5089 10.6534 34.1728C4.11553 33.3044 14.2422 30.8115 14.2422 30.8115C11.182 30.8115 8.17734 31.5398 5.45092 32.9123C-0.252315 35.7133 19.6394 36.9738 29.8774 34.2568ZM32.3813 41.0353C32.3257 41.1474 32.27 41.2314 32.1587 41.3154C46.0969 37.6461 40.9779 28.3186 34.3009 30.6435C33.9393 30.8115 33.6332 31.0356 33.4385 31.3437C33.828 31.2037 34.2175 31.0916 34.6348 31.0076C37.9733 30.3353 42.7584 35.5733 32.3813 41.0353ZM32.743 53.9482C24.369 55.4047 15.8002 55.5167 7.37054 54.3403C7.37054 54.3403 8.65029 55.4047 15.1881 55.8249C25.2036 56.4691 40.5884 55.4607 40.9501 50.6989C41.0335 50.727 40.3102 52.5196 32.743 53.9482Z"
        fill="white" />
</svg>