<svg width="19" height="30" viewBox="0 0 19 30" fill="none" xmlns="http://www.w3.org/2000/svg">
    <path
        d="M14.9785 16.6163C13.7772 16.6163 12.7002 17.1338 11.9627 17.9487L10.0729 16.6477C10.2735 16.1105 10.3887 15.5337 10.3887 14.9301C10.3887 14.3368 10.2775 13.7697 10.0835 13.2405L11.9691 11.9533C12.7065 12.764 13.7807 13.2788 14.9785 13.2788C17.1958 13.2788 19 11.5245 19 9.36797C19 7.2114 17.1958 5.45714 14.9785 5.45714C12.7612 5.45714 10.9571 7.2114 10.9571 9.36797C10.9571 9.75397 11.017 10.1262 11.1246 10.4787L9.23779 11.7666C8.44958 10.8157 7.3147 10.1517 6.02167 9.94907V7.73757C7.84329 7.3655 9.21582 5.79154 9.21582 3.91083C9.21582 1.75426 7.41163 0 5.19435 0C2.97706 0 1.17288 1.75426 1.17288 3.91083C1.17288 5.76635 2.50986 7.32089 4.29504 7.71953V9.95975C1.85873 10.3756 0 12.4434 0 14.9301C0 17.4289 1.87714 19.5042 4.33104 19.9059V22.2715C2.52759 22.6569 1.17288 24.221 1.17288 26.0892C1.17288 28.2457 2.97706 30 5.19435 30C7.41163 30 9.21582 28.2457 9.21582 26.0892C9.21582 24.221 7.8611 22.6569 6.05766 22.2715V19.9059C7.32524 19.6983 8.43927 19.0475 9.21938 18.1176L11.1218 19.4271C11.0162 19.7764 10.9571 20.145 10.9571 20.5271C10.9571 22.6837 12.7612 24.4379 14.9785 24.4379C17.1958 24.4379 19 22.6837 19 20.5271C19 18.3705 17.1958 16.6163 14.9785 16.6163ZM14.9785 7.47181C16.0537 7.47181 16.9283 8.32263 16.9283 9.36797C16.9283 10.4133 16.0537 11.2641 14.9785 11.2641C13.9033 11.2641 13.0288 10.4133 13.0288 9.36797C13.0288 8.32263 13.9033 7.47181 14.9785 7.47181ZM3.24455 3.91083C3.24455 2.86549 4.11914 2.01474 5.19435 2.01474C6.26956 2.01474 7.14407 2.86549 7.14407 3.91083C7.14407 4.95616 6.26956 5.80691 5.19435 5.80691C4.11914 5.80691 3.24455 4.95616 3.24455 3.91083ZM7.14407 26.0892C7.14407 27.1345 6.26956 27.9853 5.19435 27.9853C4.11914 27.9853 3.24455 27.1345 3.24455 26.0892C3.24455 25.0438 4.11914 24.1931 5.19435 24.1931C6.26956 24.1931 7.14407 25.0438 7.14407 26.0892ZM5.1942 17.5745C3.69461 17.5745 2.47468 16.3883 2.47468 14.9301C2.47468 13.4717 3.69461 12.2854 5.1942 12.2854C6.69372 12.2854 7.91365 13.4717 7.91365 14.9301C7.91365 16.3883 6.69372 17.5745 5.1942 17.5745ZM14.9785 22.4232C13.9033 22.4232 13.0288 21.5724 13.0288 20.5271C13.0288 19.4817 13.9033 18.631 14.9785 18.631C16.0537 18.631 16.9283 19.4817 16.9283 20.5271C16.9283 21.5724 16.0537 22.4232 14.9785 22.4232Z"
        fill="white" />
</svg>