<svg width="21" height="27" viewBox="0 0 21 27" fill="none" xmlns="http://www.w3.org/2000/svg">
<path d="M20.8616 20.5702L12.1406 0.851541C12.0323 0.608915 11.8643 0.401993 11.6545 0.252673C11.4448 0.103353 11.201 0.0171887 10.949 0.00329786C10.6965 -0.0147165 10.4442 0.0413193 10.2196 0.165311C9.9949 0.289303 9.80648 0.476505 9.67478 0.706557L0.215998 17.018C0.0721729 17.2643 -0.00272814 17.5492 7.59432e-05 17.8392C0.00288003 18.1292 0.083273 18.4123 0.23183 18.6554L4.85626 26.2802C5.03121 26.5665 5.28839 26.7848 5.58942 26.9027C5.89046 27.0206 6.21922 27.0317 6.52666 26.9343L19.9469 22.7078C20.149 22.6449 20.336 22.5365 20.4953 22.39C20.6547 22.2435 20.7827 22.0623 20.8706 21.8587C20.9572 21.656 21.0014 21.4358 21 21.2131C20.9985 20.9905 20.9515 20.7709 20.8623 20.5695L20.8616 20.5702ZM18.9091 21.4159L7.52129 25.0012C7.17389 25.1113 6.84043 24.7907 6.9127 24.4174L10.9813 3.67558C11.0573 3.28753 11.5607 3.22605 11.7198 3.58519L19.2514 20.6141C19.2847 20.6899 19.3022 20.7726 19.3026 20.8564C19.3029 20.9401 19.2863 21.0229 19.2537 21.0992C19.2211 21.1754 19.1733 21.2432 19.1138 21.2978C19.0542 21.3525 18.9842 21.3928 18.9085 21.4158L18.9091 21.4159Z" fill="white"/>
</svg>
