<svg width="31" height="19" viewBox="0 0 31 19" fill="none" xmlns="http://www.w3.org/2000/svg">
    <path fill-rule="evenodd" clip-rule="evenodd"
        d="M15.5 0C11.3661 0 8.78385 2.11058 7.75 6.33333C9.3 4.22275 11.1088 3.43109 13.175 3.95833C14.3545 4.25939 15.1978 5.13389 16.1293 6.10077C17.6498 7.67614 19.4091 9.5 23.25 9.5C27.3839 9.5 29.9661 7.38942 31 3.16667C29.45 5.27725 27.6427 6.06891 25.575 5.54167C24.3954 5.24061 23.5522 4.36611 22.6192 3.39923C21.1001 1.82227 19.3424 0 15.5 0ZM7.75 9.5C3.61615 9.5 1.03385 11.6106 0 15.8333C1.55 13.7212 3.35885 12.9311 5.425 13.4583C6.60455 13.7594 7.44775 14.6339 8.38085 15.6008C9.89985 17.1761 11.6591 19 15.5015 19C19.6354 19 22.2177 16.8894 23.2515 12.6667C21.7015 14.7772 19.8927 15.5689 17.8265 15.0417C16.647 14.7406 15.8038 13.8661 14.8722 12.8992C13.3502 11.3239 11.5909 9.5 7.75 9.5Z"
        fill="white" />
</svg>