<svg width="42" height="42" viewBox="0 0 42 42" fill="none" xmlns="http://www.w3.org/2000/svg">
    <path
        d="M0 5C0 2.23858 2.23858 0 5 0H37C39.7614 0 42 2.23858 42 5V37C42 39.7614 39.7614 42 37 42H5C2.23858 42 0 39.7614 0 37V5ZM26.569 33.758C25.6836 34.2713 25.3345 35.4124 26.011 36.1803C27.3373 37.6856 29.3794 38.71 32.2 38.71C35.9333 38.71 38.7333 36.7733 38.7333 33.2033C38.7333 29.9133 36.8433 28.4433 33.4833 26.9967L32.5033 26.5767C30.8 25.8533 30.0767 25.3633 30.0767 24.1967C30.0767 23.24 30.8 22.4933 31.9667 22.4933C32.4356 22.4933 32.8392 22.5792 33.1995 22.7682C34.1386 23.2606 35.2646 23.6955 36.1479 23.1089C36.9461 22.5788 37.2228 21.4897 36.5602 20.7974C35.3812 19.5654 33.8707 19.0633 31.9667 19.0633C28.4433 19.0633 26.18 21.3033 26.18 24.2667C26.18 27.4867 28.07 29.0033 30.9167 30.2167L31.8967 30.6367C33.7167 31.43 34.79 31.92 34.79 33.2733C34.79 34.3933 33.74 35.21 32.1067 35.21C30.9535 35.21 30.0899 34.8543 29.4025 34.2709C28.6003 33.5901 27.4792 33.2303 26.569 33.758ZM23.3333 21C23.3333 20.0335 22.5498 19.25 21.5833 19.25H13.4167C12.4502 19.25 11.6667 20.0335 11.6667 21C11.6667 21.9665 12.4502 22.75 13.4167 22.75C14.3832 22.75 15.1667 23.5335 15.1667 24.5V37.625C15.1667 38.7526 16.0808 39.6667 17.2083 39.6667C18.3359 39.6667 19.25 38.7526 19.25 37.625V24.7917C19.25 23.6641 20.1641 22.75 21.2917 22.75H21.5833C22.5498 22.75 23.3333 21.9665 23.3333 21Z"
        fill="white" />
</svg>